<svg width="112" height="112" viewBox="0 0 112 112" fill="none" xmlns="http://www.w3.org/2000/svg">
<path d="M100.307 58.3334C100.262 59.0186 100.055 59.5327 99.6847 59.8759C99.3214 60.2195 98.8038 60.3692 98.1319 60.3251L94.8789 60.1114L94.9235 59.4329L95.7417 59.4866C95.4795 59.3091 95.2821 59.0589 95.1496 58.7362C95.0167 58.4202 94.9643 58.0493 94.9922 57.6235C95.0307 57.0381 95.201 56.5816 95.5031 56.254C95.8052 55.9265 96.1858 55.7778 96.6448 55.8079C97.0905 55.8372 97.4392 56.0204 97.691 56.3577C97.9423 56.7015 98.0448 57.2261 97.9985 57.9312L97.8891 59.5976L98.2084 59.6186C98.6607 59.6483 99.0116 59.5444 99.2611 59.3069C99.5172 59.0698 99.6612 58.7085 99.6931 58.2229C99.7149 57.8903 99.6793 57.5672 99.5863 57.2538C99.5 56.9408 99.3676 56.6682 99.1891 56.436L99.7389 56.1514C99.9476 56.4324 100.1 56.7631 100.195 57.1435C100.297 57.5243 100.334 57.9209 100.307 58.3334ZM95.5438 57.77C95.5176 58.1691 95.5849 58.5176 95.7457 58.8155C95.9132 59.1137 96.1653 59.3441 96.5021 59.5065L97.3602 59.5629L97.4684 57.9164C97.5273 57.0184 97.2442 56.5488 96.6189 56.5077C96.3128 56.4876 96.0624 56.5881 95.8675 56.8091C95.6792 57.0306 95.5713 57.3509 95.5438 57.77Z" fill="#4DB4AD"/>
<path d="M96.55 64.1199L96.7973 62.9457L94.5075 62.4634L94.6539 61.7687L99.8009 62.8526L99.6546 63.5474L97.3942 63.0714L97.1449 64.2554L99.024 66.5417L98.8653 67.2952L96.7967 64.7441L93.6873 66.358L93.8604 65.536L96.55 64.1199Z" fill="#4DB4AD"/>
<path d="M92.1104 72.4397L90.294 71.7582L90.5294 71.1309L91.7653 71.5946L93.4551 67.0912L98.3798 68.9391L98.1304 69.6038L93.7861 67.9737L92.6584 70.9791L97.0027 72.6092L96.7532 73.274L92.409 71.6439L92.1104 72.4397Z" fill="#4DB4AD"/>
<path d="M95.6325 75.7043L95.2781 76.3196L91.6559 74.2334L93.5264 79.3612L93.2119 79.9071L88.6539 77.282L89.0082 76.6667L92.6304 78.7529L90.755 73.6338L91.0744 73.0792L95.6325 75.7043Z" fill="#4DB4AD"/>
<path d="M89.284 85.0396L85.2059 81.7175L85.6164 81.2135L86.9654 82.3125L88.0075 81.0332L88.1338 80.8782L87.5553 78.8333L88.0417 78.2363L88.6409 80.4141C88.9856 80.1704 89.3334 80.0496 89.6842 80.0516C90.0351 80.0537 90.3733 80.1874 90.699 80.4526C91.1538 80.8232 91.3738 81.2603 91.3589 81.7641C91.3441 82.2679 91.1177 82.7886 90.6798 83.3262L89.284 85.0396ZM90.2287 80.9982C89.624 80.5056 89.0079 80.6443 88.3805 81.4145L87.3763 82.6472L89.2061 84.1378L90.1787 82.9438C90.8271 82.1478 90.8438 81.4993 90.2287 80.9982Z" fill="#4DB4AD"/>
<path d="M84.7534 89.5717L84.1901 90.0039L82.7718 88.1553L80.1456 90.1701L81.5639 92.0187L81.0006 92.4509L77.7988 88.2777L78.3621 87.8455L79.7743 89.6862L82.4004 87.6713L80.9882 85.8307L81.5515 85.3985L84.7534 89.5717Z" fill="#4DB4AD"/>
<path d="M73.4538 93.5147L77.3298 91.4323C77.0359 90.9696 76.641 90.6785 76.1454 90.5588C75.6529 90.445 75.1512 90.5254 74.6402 90.7999C74.3525 90.9545 74.115 91.1464 73.9279 91.3756C73.7439 91.6107 73.6174 91.8754 73.5485 92.1697L72.9785 91.9538C73.0515 91.5967 73.2089 91.27 73.4508 90.9735C73.6867 90.6803 73.9897 90.4342 74.3597 90.2355C74.8354 89.9799 75.3118 89.8526 75.7891 89.8534C76.2636 89.8634 76.6999 89.9922 77.0979 90.24C77.496 90.4878 77.8164 90.8378 78.0594 91.29C78.3023 91.7422 78.4231 92.1995 78.4218 92.6619C78.4146 93.1274 78.2943 93.5515 78.061 93.9342C77.8218 94.32 77.4878 94.6281 77.0591 94.8584C76.6304 95.0887 76.1921 95.1956 75.7442 95.1789C75.2963 95.1622 74.8792 95.0268 74.493 94.7727C74.1098 94.5245 73.7952 94.1713 73.5491 93.7133L73.4538 93.5147ZM76.7704 94.3211C77.2167 94.0813 77.5153 93.7354 77.6661 93.2836C77.8141 92.8408 77.7857 92.3793 77.5807 91.8992L74.2949 93.6645C74.5821 94.1005 74.9541 94.3774 75.4109 94.4952C75.8651 94.6221 76.3182 94.564 76.7704 94.3211Z" fill="#4DB4AD"/>
<path d="M65.9758 94.3863L65.3654 92.5976L65.9995 92.3812L66.4097 93.5831L70.8672 92.0618L70.457 90.8599L71.0911 90.6435L71.7016 92.4322L71.4176 92.5291C71.0897 92.6621 70.9465 92.9857 70.9882 93.4998C71.0298 94.0139 71.1739 94.7044 71.4204 95.5712L71.9226 97.2595L68.2506 98.5127L66.7519 94.1214L65.9758 94.3863ZM70.7923 95.7433C70.5827 95.0259 70.4434 94.4218 70.3746 93.9311C70.3079 93.4467 70.359 93.0806 70.528 92.8327L67.4238 93.8921L68.719 97.6872L71.1134 96.87L70.7923 95.7433Z" fill="#4DB4AD"/>
<path d="M60.357 97.2269L64.6968 96.502C64.5673 95.9694 64.2871 95.5667 63.8563 95.294C63.4266 95.0278 62.9257 94.9425 62.3536 95.0381C62.0314 95.0919 61.7448 95.1972 61.4939 95.354C61.2441 95.5174 61.0392 95.7274 60.8793 95.9839L60.409 95.5961C60.593 95.2815 60.8472 95.0227 61.1715 94.8198C61.4893 94.6181 61.8553 94.4826 62.2695 94.4134C62.8022 94.3244 63.2943 94.3571 63.7459 94.5115C64.192 94.6735 64.5636 94.9359 64.8608 95.2985C65.1579 95.6612 65.3488 96.0957 65.4334 96.602C65.518 97.1083 65.4852 97.5802 65.3353 98.0175C65.1787 98.456 64.9284 98.8188 64.5843 99.1061C64.2337 99.3945 63.8184 99.5788 63.3384 99.659C62.8584 99.7391 62.409 99.6993 61.9903 99.5394C61.5716 99.3796 61.2202 99.1172 60.9362 98.7524C60.6533 98.3941 60.469 97.9585 60.3833 97.4456L60.357 97.2269ZM63.2379 99.0573C63.7376 98.9738 64.1316 98.7424 64.4197 98.3631C64.7023 97.9915 64.8238 97.5453 64.7842 97.0248L61.1051 97.6393C61.2368 98.1445 61.5 98.5264 61.8947 98.7849C62.2838 99.0511 62.7316 99.1419 63.2379 99.0573Z" fill="#4DB4AD"/>
<path d="M57.519 96.7656V102.026H56.809V97.3956H54.289L54.219 98.6956C54.1657 99.789 54.039 100.629 53.839 101.216C53.639 101.802 53.2823 102.096 52.769 102.096C52.629 102.096 52.459 102.069 52.259 102.016L52.309 101.406C52.429 101.432 52.5123 101.446 52.559 101.446C52.8323 101.446 53.039 101.319 53.179 101.066C53.319 100.812 53.4123 100.499 53.459 100.126C53.5057 99.7523 53.5457 99.259 53.579 98.6456L53.669 96.7656H57.519Z" fill="#4DB4AD"/>
<path d="M50.6848 100.083L49.984 99.9684L50.6569 95.8429L46.5198 99.4034L45.898 99.3019L46.7448 94.1105L47.4455 94.2248L46.7726 98.3503L50.8999 94.7883L51.5315 94.8913L50.6848 100.083Z" fill="#4DB4AD"/>
<path d="M30.6089 92.7174C30.0406 92.332 29.702 91.8929 29.5931 91.4002C29.4805 90.913 29.6132 90.3908 29.9912 89.8335L31.8211 87.1355L32.3838 87.5172L31.9236 88.1959C32.2094 88.0595 32.525 88.0158 32.8704 88.0647C33.2103 88.11 33.5568 88.2524 33.9099 88.4919C34.3954 88.8212 34.703 89.199 34.8327 89.6253C34.9625 90.0516 34.8982 90.4551 34.64 90.8358C34.3893 91.2055 34.0548 91.4136 33.6366 91.4602C33.2128 91.503 32.7085 91.3261 32.1236 90.9295L30.7415 89.992L30.5619 90.2569C30.3075 90.6321 30.2196 90.9873 30.2982 91.3226C30.3732 91.6634 30.612 91.9704 31.0148 92.2436C31.2907 92.4307 31.5873 92.5634 31.9047 92.6418C32.2184 92.7256 32.5205 92.7493 32.8111 92.7128L32.7784 93.3311C32.4305 93.369 32.0684 93.3328 31.6921 93.2225C31.312 93.1178 30.9509 92.9494 30.6089 92.7174ZM33.5045 88.8936C33.1734 88.669 32.8388 88.5508 32.5005 88.5389C32.1585 88.5324 31.8322 88.6334 31.5218 88.8417L31.039 89.5534L32.4046 90.4796C33.1494 90.9848 33.6977 90.9781 34.0495 90.4594C34.2216 90.2056 34.2617 89.9388 34.1696 89.6588C34.0738 89.3844 33.8521 89.1293 33.5045 88.8936Z" fill="#4DB4AD"/>
<path d="M27.5977 86.6199L28.4883 87.4241L30.0566 85.6875L30.5835 86.1634L27.0581 90.0671L26.5312 89.5912L28.0794 87.8769L27.1814 87.0659L24.2602 87.5403L23.6888 87.0242L26.9341 86.5191L27.1029 83.02L27.7263 83.583L27.5977 86.6199Z" fill="#4DB4AD"/>
<path d="M22.6295 78.6022L24.1291 77.3715L24.5541 77.8894L23.5338 78.7268L26.5852 82.445L22.5192 85.7819L22.0688 85.2331L25.6556 82.2895L23.6191 79.8081L20.0324 82.7517L19.582 82.2029L23.1687 79.2593L22.6295 78.6022Z" fill="#4DB4AD"/>
<path d="M18.0746 80.0621L17.718 79.4482L21.3325 77.3487L15.9551 76.413L15.6386 75.8683L20.187 73.2263L20.5436 73.8403L16.9291 75.9398L22.3016 76.8668L22.623 77.4202L18.0746 80.0621Z" fill="#4DB4AD"/>
<path d="M13.163 69.9036L18.0807 68.0373L18.3114 68.645L16.6846 69.2624L17.27 70.805L17.341 70.992L19.4006 71.5153L19.6738 72.2352L17.4888 71.6633C17.5271 72.0837 17.4575 72.4452 17.28 72.7479C17.1025 73.0506 16.8175 73.2764 16.4248 73.4254C15.8763 73.6336 15.3877 73.6051 14.9591 73.3399C14.5304 73.0748 14.1931 72.6181 13.9471 71.9698L13.163 69.9036ZM16.188 72.7452C16.9173 72.4684 17.1057 71.8657 16.7532 70.937L16.189 69.4504L13.9826 70.2878L14.529 71.7276C14.8933 72.6875 15.4463 73.0267 16.188 72.7452Z" fill="#4DB4AD"/>
<path d="M11.5115 63.7153L11.4215 63.011L13.7327 62.7155L13.3129 59.4322L11.0017 59.7277L10.9117 59.0234L16.1292 58.3564L16.2193 59.0607L13.918 59.3549L14.3378 62.6381L16.639 62.3439L16.7291 63.0482L11.5115 63.7153Z" fill="#4DB4AD"/>
<path d="M13.7963 51.7722L13.6266 56.169C14.1744 56.1501 14.6255 55.9573 14.9799 55.5907C15.3276 55.2239 15.5127 54.7507 15.5351 54.1711C15.5477 53.8447 15.5026 53.5427 15.3999 53.2652C15.2906 52.9875 15.1265 52.7443 14.9077 52.5357L15.3828 52.1537C15.6536 52.3977 15.8554 52.699 15.9884 53.0578C16.1215 53.4098 16.18 53.7957 16.1638 54.2154C16.143 54.755 16.0112 55.2303 15.7685 55.6412C15.5194 56.0452 15.1872 56.356 14.7718 56.5734C14.3564 56.7909 13.8923 56.8897 13.3793 56.8699C12.8664 56.8501 12.411 56.7225 12.0131 56.4869C11.6155 56.2447 11.3109 55.9261 11.0993 55.531C10.888 55.1292 10.7917 54.6851 10.8105 54.1988C10.8293 53.7125 10.9594 53.2806 11.2008 52.9029C11.4422 52.5253 11.7703 52.2344 12.1852 52.0303C12.5934 51.8259 13.0573 51.7337 13.5769 51.7537L13.7963 51.7722ZM11.42 54.2224C11.4005 54.7287 11.5472 55.1613 11.8603 55.5203C12.1669 55.8724 12.5791 56.0818 13.097 56.1485L13.2409 52.4213C12.7195 52.4478 12.2922 52.6282 11.9591 52.9622C11.6195 53.2894 11.4398 53.7094 11.42 54.2224Z" fill="#4DB4AD"/>
<path d="M16.794 44.9412L18.6464 45.3166L18.5133 45.9732L17.2686 45.721L16.3332 50.3372L17.5779 50.5894L17.4448 51.2461L15.5925 50.8707L15.6521 50.5767C15.7026 50.2264 15.4955 49.9395 15.0306 49.7161C14.5657 49.4927 13.8969 49.2687 13.0241 49.0442L11.313 48.6261L12.0836 44.8233L16.6312 45.7449L16.794 44.9412ZM13.1924 48.4151C13.9175 48.5961 14.5093 48.7806 14.9678 48.9687C15.4197 49.1555 15.71 49.3844 15.8387 49.6554L16.4902 46.4407L12.56 45.6443L12.0576 48.1239L13.1924 48.4151Z" fill="#4DB4AD"/>
<path d="M17.1275 38.7319L15.5663 42.8457C16.0915 43.0022 16.5805 42.9632 17.0333 42.7286C17.4797 42.4916 17.8059 42.1019 18.0117 41.5597C18.1276 41.2542 18.181 40.9537 18.1721 40.6579C18.1568 40.3598 18.0788 40.077 17.9378 39.8096L18.5098 39.5988C18.6888 39.9163 18.7842 40.2663 18.7959 40.6487C18.81 41.0248 18.7426 41.4092 18.5936 41.8019C18.402 42.3068 18.1257 42.7153 17.7648 43.0276C17.4 43.3312 16.986 43.52 16.523 43.5938C16.0601 43.6677 15.5886 43.6135 15.1087 43.4314C14.6287 43.2493 14.2377 42.9832 13.9355 42.6332C13.6357 42.277 13.4485 41.8779 13.3738 41.436C13.3014 40.9878 13.3516 40.5363 13.5243 40.0813C13.6969 39.6263 13.9578 39.2582 14.3069 38.9771C14.6561 38.696 15.0597 38.5248 15.518 38.4634C15.97 38.3997 16.4391 38.46 16.9253 38.6445L17.1275 38.7319ZM14.0946 40.2977C13.9148 40.7714 13.9161 41.2283 14.0985 41.6683C14.2771 42.0997 14.6011 42.4295 15.0707 42.6576L16.3942 39.1703C15.8915 39.0294 15.429 39.0643 15.0068 39.2748C14.5808 39.4768 14.2767 39.8178 14.0946 40.2977Z" fill="#4DB4AD"/>
<path d="M17.7358 31.571L22.2842 34.2129L21.9276 34.8269L17.9239 32.5014L16.6582 34.6804L17.7472 35.3939C18.6658 35.9892 19.3286 36.5206 19.7354 36.9882C20.1423 37.4558 20.2168 37.9116 19.9589 38.3555C19.8886 38.4765 19.7802 38.6101 19.6336 38.7563L19.1312 38.4067C19.2146 38.3163 19.2679 38.2509 19.2914 38.2106C19.4287 37.9742 19.4229 37.7319 19.2742 37.4836C19.1255 37.2353 18.9014 36.9972 18.602 36.7693C18.3026 36.5415 17.8961 36.2591 17.3825 35.9222L15.8021 34.9001L17.7358 31.571Z" fill="#4DB4AD"/>
<path d="M19.4765 28.9619L19.9289 28.4147L23.1504 31.0783L22.1655 25.7096L22.5669 25.2241L26.6208 28.5758L26.1683 29.123L22.9469 26.4594L23.9381 31.8204L23.5303 32.3136L19.4765 28.9619Z" fill="#4DB4AD"/>
<path d="M35.7979 15.3242C36.4155 15.0241 36.965 14.9499 37.4463 15.1014C37.9247 15.247 38.311 15.6226 38.6053 16.2283L40.0299 19.1605L39.4183 19.4577L39.0599 18.7201C39.0355 19.0359 38.9158 19.3312 38.701 19.606C38.4922 19.878 38.1959 20.1072 37.8121 20.2936C37.2844 20.55 36.8035 20.628 36.3693 20.5277C35.9352 20.4273 35.6176 20.1703 35.4165 19.7565C35.2213 19.3547 35.2079 18.961 35.3763 18.5753C35.5507 18.1867 35.9557 17.838 36.5913 17.5292L38.0934 16.7994L37.9535 16.5116C37.7554 16.1038 37.4915 15.8503 37.1616 15.7512C36.8289 15.646 36.4436 15.6998 36.0059 15.9125C35.7061 16.0581 35.443 16.2489 35.2167 16.4849C34.9875 16.7148 34.8162 16.9648 34.7028 17.2349L34.1834 16.898C34.3242 16.5776 34.5362 16.2819 34.8196 16.0108C35.1 15.7337 35.4261 15.5048 35.7979 15.3242ZM37.6663 19.7419C38.0261 19.567 38.2956 19.3361 38.4748 19.0489C38.651 18.7557 38.7264 18.4226 38.7008 18.0496L38.325 17.2761L36.8409 17.9972C36.0314 18.3905 35.7635 18.8689 36.0374 19.4326C36.1714 19.7084 36.3827 19.8763 36.6712 19.9363C36.9569 19.9902 37.2886 19.9254 37.6663 19.7419Z" fill="#4DB4AD"/>
<path d="M42.7185 15.7031L41.5757 16.0693L42.2896 18.2977L41.6135 18.5143L40.0086 13.5051L40.6848 13.2885L41.3896 15.4883L42.5419 15.1192L43.5989 12.3549L44.3322 12.1199L43.1389 15.1799L46.0798 17.0834L45.2799 17.3397L42.7185 15.7031Z" fill="#4DB4AD"/>
<path d="M52.1678 15.4392L52.4728 17.3551L51.8111 17.4604L51.6036 16.1568L46.8534 16.9129L46.0266 11.7183L46.7277 11.6067L47.4571 16.189L50.6272 15.6844L49.8978 11.1021L50.599 10.9905L51.3284 15.5728L52.1678 15.4392Z" fill="#4DB4AD"/>
<path d="M53.4471 10.7475L54.1571 10.753L54.1248 14.9328L57.6669 10.7801L58.2969 10.7849L58.2563 16.0448L57.5463 16.0393L57.5786 11.8594L54.0464 16.0123L53.4065 16.0073L53.4471 10.7475Z" fill="#4DB4AD"/>
<path d="M64.7028 11.6663L63.8163 16.8511L63.1756 16.7415L63.4689 15.0264L61.8425 14.7483L61.6453 14.7146L60.1495 16.2241L59.3906 16.0943L60.9919 14.5014C60.6102 14.3212 60.3339 14.0778 60.1631 13.7713C59.9923 13.4648 59.9423 13.1046 60.0131 12.6906C60.112 12.1123 60.3844 11.7057 60.8304 11.4709C61.2763 11.236 61.841 11.177 62.5244 11.2938L64.7028 11.6663ZM60.7195 12.8316C60.588 13.6005 61.0118 14.0686 61.991 14.236L63.5582 14.504L63.956 12.1777L62.438 11.9182C61.426 11.7452 60.8532 12.0496 60.7195 12.8316Z" fill="#4DB4AD"/>
<path d="M70.5897 13.2568L71.2436 13.5334L70.3359 15.6794L73.3845 16.9688L74.2921 14.8228L74.946 15.0994L72.897 19.9439L72.2431 19.6673L73.1468 17.5306L70.0983 16.2412L69.1946 18.3779L68.5406 18.1013L70.5897 13.2568Z" fill="#4DB4AD"/>
<path d="M79.8274 21.2643L76.1152 18.9023C75.8555 19.385 75.7946 19.8718 75.9327 20.3626C76.0744 20.8479 76.3899 21.2462 76.8792 21.5575C77.1549 21.7329 77.4384 21.8461 77.7298 21.8972C78.0249 21.9427 78.3176 21.9235 78.608 21.8396L78.6985 22.4425C78.3514 22.5534 77.9894 22.576 77.6125 22.51C77.2413 22.4477 76.8785 22.3038 76.5242 22.0783C76.0686 21.7884 75.7244 21.4351 75.4918 21.0184C75.2683 20.5997 75.1673 20.1561 75.1887 19.6878C75.2102 19.2194 75.3587 18.7687 75.6342 18.3356C75.9098 17.9025 76.2496 17.5734 76.6535 17.3484C77.063 17.127 77.4917 17.0245 77.9397 17.0408C78.3932 17.0607 78.8252 17.2013 79.2358 17.4625C79.6464 17.7238 79.954 18.0538 80.1586 18.4526C80.3631 18.8514 80.4491 19.2814 80.4164 19.7426C80.3873 20.1982 80.2331 20.6454 79.954 21.0841L79.8274 21.2643ZM78.9084 17.9772C78.4809 17.7052 78.0333 17.614 77.5654 17.7035C77.1068 17.7909 76.7182 18.0415 76.3997 18.4552L79.5467 20.4575C79.7864 19.9937 79.846 19.5338 79.7253 19.0777C79.6138 18.6196 79.3415 18.2527 78.9084 17.9772Z" fill="#4DB4AD"/>
<path d="M84.1786 27.2572L82.9221 28.669L82.4216 28.2236L83.2659 27.2749L79.7475 24.1436L78.9032 25.0923L78.4027 24.6469L79.6592 23.235L79.8833 23.4345C80.1605 23.6544 80.5127 23.6198 80.9397 23.3305C81.3667 23.0412 81.8968 22.5759 82.53 21.9346L83.7524 20.6664L86.6508 23.2459L83.566 26.712L84.1786 27.2572ZM82.989 22.3966C82.4677 22.9322 82.0104 23.3508 81.6172 23.6523C81.2283 23.9488 80.8844 24.0845 80.5855 24.0594L83.0357 26.24L85.7016 23.2445L83.8117 21.5625L82.989 22.3966Z" fill="#4DB4AD"/>
<path d="M89.5231 30.8297L86.7566 27.4082C86.3567 27.783 86.144 28.2251 86.1185 28.7343C86.0982 29.2394 86.2704 29.7175 86.6351 30.1685C86.8405 30.4225 87.0732 30.6201 87.3332 30.7614C87.5984 30.8985 87.882 30.9736 88.184 30.9866L88.0778 31.5868C87.7133 31.5815 87.363 31.4875 87.0268 31.305C86.6948 31.1276 86.3967 30.8756 86.1327 30.549C85.7931 30.1291 85.5795 29.6846 85.4916 29.2155C85.4132 28.7474 85.4587 28.2948 85.6282 27.8576C85.7978 27.4205 86.0821 27.0405 86.4813 26.7178C86.8804 26.395 87.3073 26.1913 87.7619 26.1067C88.2206 26.0273 88.6597 26.0666 89.079 26.2248C89.5026 26.3881 89.8674 26.659 90.1734 27.0375C90.4794 27.4159 90.6658 27.8267 90.7327 28.2699C90.7995 28.7131 90.744 29.1481 90.5661 29.5748C90.3934 29.9974 90.1049 30.3722 89.7005 30.6991L89.5231 30.8297ZM89.699 27.421C89.3805 27.027 88.9852 26.7979 88.5132 26.7338C88.0506 26.6706 87.6024 26.7843 87.1688 27.075L89.514 29.9754C89.889 29.6122 90.092 29.1952 90.1228 28.7244C90.1631 28.2546 90.0218 27.8202 89.699 27.421Z" fill="#4DB4AD"/>
<path d="M95.3691 34.9029L90.8014 37.5112L90.4493 36.8947L94.47 34.5987L93.2203 32.4104L92.0567 32.9942C91.0808 33.4901 90.2886 33.7966 89.6799 33.9139C89.0713 34.0311 88.6397 33.8668 88.3852 33.4211C88.3157 33.2995 88.2546 33.1386 88.2017 32.9385L88.7563 32.6795C88.7926 32.7969 88.8223 32.8759 88.8455 32.9164C88.981 33.1537 89.1935 33.2704 89.4829 33.2663C89.7723 33.2623 90.0907 33.188 90.4381 33.0434C90.7854 32.8988 91.2336 32.6889 91.7828 32.4137L93.46 31.5596L95.3691 34.9029Z" fill="#4DB4AD"/>
<path d="M96.6978 37.6034L96.9447 38.2691L93.0256 39.7229L98.1654 41.56L98.3845 42.1506L93.4529 43.98L93.206 43.3143L97.125 41.8606L91.9887 40.0328L91.7661 39.4328L96.6978 37.6034Z" fill="#4DB4AD"/>
</svg>
